<svg width="154" height="36" viewBox="0 0 154 36" fill="none" xmlns="http://www.w3.org/2000/svg" class="sm:w-4/5">
    <path fill-rule="evenodd" clip-rule="evenodd" d="M38.1078 24.238C38.3771 24.5106 38.7329 24.6611 39.108 24.6517C39.4831 24.6611 39.8389 24.52 40.1082 24.238C40.3679 23.9559 40.5025 23.5893 40.4929 23.2038V20.1764H42.5798C45.3784 20.1764 47.3403 18.4183 47.3403 15.814C47.3403 13.2285 45.4361 11.4892 42.5798 11.4892H39.1272C38.7522 11.4798 38.3867 11.6208 38.1174 11.9029C37.8578 12.1755 37.7135 12.5422 37.7231 12.9371V23.2038C37.7135 23.5893 37.8482 23.9653 38.1078 24.238ZM42.599 17.7884H40.4929V13.8867H42.599C43.7531 13.8867 44.5225 14.6576 44.5225 15.8235C44.5513 16.35 44.359 16.8671 43.9935 17.2431C43.6185 17.6192 43.1184 17.8166 42.599 17.7884Z" fill="white"></path>
    <path fill-rule="evenodd" clip-rule="evenodd" d="M58.9271 23.775C59.1986 24.2357 59.7126 24.5083 60.2653 24.4989C60.9894 24.4998 61.5868 23.9496 61.623 23.2485C61.6036 22.8254 61.4484 22.4212 61.1769 22.0921L59.1211 19.281L59.412 19.0835C60.5303 18.2929 61.1787 17.0216 61.1478 15.6801C61.1478 13.1134 59.1308 11.3835 56.1052 11.3835H52.4493C52.0501 11.3676 51.6622 11.5137 51.3788 11.7867C51.0953 12.0597 50.9421 12.4349 50.9559 12.822V23.0605C50.9559 23.8445 51.6115 24.4801 52.4202 24.4801C53.2289 24.4801 53.8845 23.8445 53.8845 23.0605V20.0331H56.3573L58.9271 23.775ZM56.1246 17.6547H53.8942V13.7717H56.1246C57.3368 13.7717 58.161 14.5427 58.161 15.6991C58.1897 16.2291 57.9837 16.7458 57.5948 17.1193C57.2058 17.4928 56.671 17.6876 56.1246 17.6547Z" fill="white"></path>
    <path fill-rule="evenodd" clip-rule="evenodd" d="M63.7383 17.8881C63.7383 21.627 66.8612 24.5477 70.86 24.5477C74.8778 24.5477 78.0198 21.627 78.0198 17.8881C78.0198 14.1492 74.8493 11.2285 70.86 11.2285C66.8707 11.2285 63.7383 14.1492 63.7383 17.8881ZM67.8941 14.9134C68.6839 14.1297 69.7672 13.7142 70.879 13.7686C71.9891 13.7201 73.069 14.1375 73.8575 14.9199C74.6459 15.7023 75.0711 16.7785 75.0301 17.888C75.0301 20.314 73.3545 22.0075 70.879 22.0075C69.7648 22.071 68.6761 21.6584 67.8842 20.8726C67.0924 20.0868 66.672 19.0018 66.7278 17.888C66.681 16.7768 67.1043 15.6972 67.8941 14.9134Z" fill="white"></path>
    <path d="M85.6895 24.5472C85.2969 24.5526 84.9193 24.4 84.6444 24.125C84.3696 23.85 84.2216 23.4765 84.2349 23.0916V13.7587H81.1511C80.4432 13.7587 79.8711 13.1878 79.8711 12.4933C79.8711 11.7893 80.4432 11.228 81.1511 11.228H90.2278C90.9357 11.228 91.5079 11.7988 91.5079 12.4933C91.5079 13.1878 90.9357 13.7587 90.2278 13.7587H87.1538V23.0821C87.1635 23.4721 87.018 23.8527 86.7368 24.1286C86.4556 24.414 86.0774 24.5567 85.6798 24.5472H85.6895Z" fill="white"></path>
    <path fill-rule="evenodd" clip-rule="evenodd" d="M92.3008 17.8881C92.3008 21.627 95.4237 24.5477 99.4225 24.5477C103.431 24.5477 106.582 21.627 106.582 17.8881C106.582 14.1492 103.412 11.2285 99.4225 11.2285C95.4332 11.2285 92.3008 14.1492 92.3008 17.8881ZM96.4566 14.9134C97.2464 14.1297 98.3297 13.7142 99.4415 13.7686C100.552 13.7201 101.632 14.1375 102.42 14.9199C103.208 15.7023 103.634 16.7785 103.593 17.888C103.593 20.314 101.917 22.0075 99.4415 22.0075C98.3273 22.071 97.2386 21.6584 96.4467 20.8726C95.6549 20.0868 95.2345 19.0018 95.2903 17.888C95.2435 16.7768 95.6668 15.6972 96.4566 14.9134Z" fill="white"></path>
    <path d="M110.918 24.6451C110.531 24.6585 110.157 24.5104 109.89 24.238C109.618 23.954 109.473 23.5753 109.502 23.1967V12.8397C109.482 12.4421 109.628 12.0729 109.899 11.7983C110.171 11.5143 110.549 11.3723 110.937 11.3818H116.969C117.657 11.3818 118.22 11.9498 118.22 12.6409C118.227 12.9706 118.099 13.2895 117.864 13.5262C117.629 13.7629 117.306 13.8976 116.969 13.9H112.343V17.2135H115.883C116.581 17.2135 117.143 17.7815 117.143 18.4821C117.148 18.8117 117.018 19.1297 116.781 19.3646C116.544 19.5995 116.22 19.7318 115.883 19.7317H112.343V23.1872C112.362 23.5659 112.217 23.9445 111.945 24.2286C111.674 24.5031 111.305 24.6451 110.918 24.6356V24.6451Z" fill="white"></path>
    <path d="M123.51 24.6445C123.129 24.654 122.748 24.512 122.482 24.2469C122.208 23.9781 122.063 23.6063 122.082 23.2245V12.8581C122.063 12.3468 122.329 11.8546 122.777 11.5895C123.229 11.323 123.791 11.323 124.243 11.5895C124.69 11.8546 124.957 12.3468 124.938 12.8581V23.2245C124.957 23.6031 124.814 23.9818 124.548 24.2469C124.272 24.5214 123.9 24.6635 123.51 24.654V24.6445Z" fill="white"></path>
    <path fill-rule="evenodd" clip-rule="evenodd" d="M136.84 23.8684C137.098 24.3323 137.614 24.6068 138.15 24.5974C138.86 24.5932 139.443 24.0406 139.479 23.3382C139.46 22.9122 139.307 22.5051 139.039 22.1738L137.012 19.3431L137.289 19.1349C138.393 18.3427 139.035 17.0665 139.01 15.7173C139.01 13.1328 137.022 11.3908 134.038 11.3908H130.434C130.04 11.3748 129.657 11.5219 129.378 11.7968C129.099 12.0717 128.947 12.4495 128.961 12.8393V23.1489C128.932 23.6761 129.201 24.1756 129.659 24.4459C130.116 24.7328 130.697 24.7409 131.161 24.4668C131.626 24.1927 131.896 23.6832 131.858 23.1489V20.1005H134.297L136.84 23.8684ZM134.057 17.7053H131.858V13.7954H134.057C135.262 13.7954 136.065 14.5717 136.065 15.7361C136.091 16.269 135.887 16.7874 135.504 17.1628C135.121 17.5382 134.595 17.7353 134.057 17.7053Z" fill="white"></path>
    <path d="M143.731 24.6446C143.322 24.6578 142.926 24.5058 142.636 24.2244C142.346 23.9431 142.188 23.5573 142.199 23.1583V12.8771C142.179 12.4756 142.335 12.0847 142.627 11.8014C142.919 11.5181 143.32 11.3689 143.731 11.3908H150.316C151.043 11.3908 151.634 11.9588 151.634 12.6688C151.634 13.3789 151.043 13.9564 150.316 13.9564H145.195V16.6071H148.589C149.259 16.6071 149.792 17.1183 149.792 17.7621C149.792 18.4059 149.259 18.9265 148.589 18.9265H145.195V22.0791H150.577C151.305 22.0791 151.896 22.6471 151.896 23.3571C151.896 24.0671 151.305 24.6352 150.577 24.6352L143.731 24.6446Z" fill="white"></path>
    <path d="M2.50153 35.5773C1.10485 34.9105 0.182327 33.5502 0.0897005 32.021C-0.0029259 30.4918 0.748818 29.0326 2.05504 28.2061C3.36127 27.3796 5.0179 27.315 6.38609 28.0371C8.44313 29.1228 9.24278 31.6339 8.1852 33.6867C7.12762 35.7396 4.60139 36.5799 2.50153 35.5773Z" fill="#F54703"></path>
    <path d="M1.52302 6.85134C-1.24729 11.9202 -0.14599 18.1947 4.19173 22.0559C4.67344 22.4919 5.42492 22.4824 5.88737 22.0464C7.76931 20.2967 8.36281 17.588 7.38069 15.2309C6.30276 12.7864 6.94414 9.93706 8.97036 8.16894C11.0345 6.36293 14.0029 5.96229 16.4851 7.15468C18.9456 8.30199 20.3906 10.8633 20.0787 13.5246C19.715 16.191 17.6927 18.3475 15.0207 18.9183C12.479 19.5103 10.5439 21.5412 10.1072 24.0749C10.0109 24.6911 10.4444 25.2693 11.0995 25.383C17.6991 26.5205 24.1733 22.8616 26.2833 16.8139C28.4028 10.7473 25.5125 4.14031 19.5103 1.29658C13.036 -1.7557 4.8565 0.775225 1.52302 6.85134Z" fill="url(#paint0_linear_1039_3367)"></path>
    <defs>
        <linearGradient id="paint0_linear_1039_3367" x1="19.4628" y1="29.6578" x2="30.4787" y2="6.5862" gradientUnits="userSpaceOnUse">
            <stop stop-color="#F54703"></stop>
            <stop offset="1" stop-color="#FAC902"></stop>
        </linearGradient>
    </defs>
</svg>